<svg xmlns="http://www.w3.org/2000/svg" viewBox="0 0 200 200">
  <path fill="#9a8fff" d="M42 66c0-12 10-22 22-22h72c12 0 22 10 22 22v72c0 12-10 22-22 22H64c-12 0-22-10-22-22z"/>
  <path fill="#b8b0ff" d="M54 66c0-6 4-10 10-10h72c6 0 10 4 10 10v72c0 6-4 10-10 10H64c-6 0-10-4-10-10z"/>
  <path fill="#ffe27d" d="M66 78h68v44H66z"/>
  <path fill="#ff9a8b" d="M82 94c0-8 6-14 14-14s14 6 14 14-6 14-14 14-14-6-14-14zm34-16c0-4 4-8 8-8s8 4 8 8-4 8-8 8-8-4-8-8zm-48 32c0-4 3-8 8-8 4 0 8 4 8 8s-4 8-8 8c-5 0-8-4-8-8z"/>
  <path fill="#ffb6a9" d="M66 130h68v12H66z"/>
</svg>
