<svg xmlns="http://www.w3.org/2000/svg" viewBox="0 0 200 200">
  <path fill="#ffd482" d="M38 78c0-8 6-14 14-14h96c8 0 14 6 14 14v18c0 8-6 14-14 14H52c-8 0-14-6-14-14z"/>
  <path fill="#ff9f6f" d="M46 62h112v10H46z"/>
  <path fill="#ffe6b3" d="M38 108c0-8 6-14 14-14h96c8 0 14 6 14 14v18c0 8-6 14-14 14H52c-8 0-14-6-14-14z"/>
  <path fill="#ffb769" d="M38 138c0-8 6-14 14-14h96c8 0 14 6 14 14v18c0 8-6 14-14 14H52c-8 0-14-6-14-14z"/>
  <path fill="#fbedcc" d="M58 86h76v12H58z"/>
  <path fill="#f9d18c" d="M58 116h76v12H58z"/>
  <path fill="#f5c074" d="M58 146h76v12H58z"/>
</svg>
