<svg xmlns="http://www.w3.org/2000/svg" viewBox="0 0 200 200">
  <path fill="#f87ebb" d="M30 52c0-12 9-22 21-22h98c12 0 21 10 21 22v96c0 12-9 22-21 22H51c-12 0-21-10-21-22z"/>
  <path fill="#ffb8d6" d="M40 124h120v20c0 12-9 22-21 22H61c-12 0-21-10-21-22z"/>
  <path fill="#ffe5f4" d="M56 70h88c5 0 9 4 9 9v58c0 5-4 9-9 9H56c-5 0-9-4-9-9V79c0-5 4-9 9-9z"/>
  <path fill="#7f52ff" d="M64 144a12 12 0 1 1 24 0 12 12 0 1 1-24 0zm8-18a6 6 0 0 1 6-6h4a6 6 0 0 1 6 6v4a6 6 0 0 1-6 6h-4a6 6 0 0 1-6-6z"/>
  <path fill="#fcec7e" d="M124 132c0-8 6-14 14-14s14 6 14 14-6 14-14 14-14-6-14-14zm-6 22c0-5 4-9 9-9h26c5 0 9 4 9 9s-4 9-9 9h-26c-5 0-9-4-9-9z"/>
  <path fill="#ff8ac5" d="M40 76c0-8 6-14 14-14h92c8 0 14 6 14 14v6H40z"/>
</svg>
