<svg xmlns="http://www.w3.org/2000/svg" viewBox="0 0 200 200">
  <path fill="#b5f58b" d="M100 26c26 0 40 18 40 38 0 12-6 24-16 32-10 8-24 8-24-2 0-12 16-18 16-30 0-10-8-18-16-18s-16 8-16 18c0 12 16 18 16 30 0 10-14 10-24 2-10-8-16-20-16-32 0-20 14-38 40-38z"/>
  <path fill="#89d96b" d="M72 68c12 0 18 10 18 20 0 8-4 18-14 24-10 6-16-2-16-10 0-10 0-34 12-34z"/>
  <path fill="#89d96b" d="M128 68c-12 0-18 10-18 20 0 8 4 18 14 24 10 6 16-2 16-10 0-10 0-34-12-34z"/>
  <path fill="#ff9acb" d="M68 128c0-12 10-22 22-22h20c12 0 22 10 22 22v20c0 12-10 22-22 22H90c-12 0-22-10-22-22z"/>
  <path fill="#ffb5d9" d="M60 132h80v10c0 12-10 22-22 22H82c-12 0-22-10-22-22z"/>
</svg>
