<svg xmlns="http://www.w3.org/2000/svg" viewBox="0 0 200 200">
  <path fill="#8fdcff" d="M52 72c0-10 8-18 18-18h60c10 0 18 8 18 18v80c0 10-8 18-18 18H70c-10 0-18-8-18-18z"/>
  <path fill="#6fbdea" d="M40 120c0-10 8-18 18-18h84c10 0 18 8 18 18v20c0 10-8 18-18 18H58c-10 0-18-8-18-18z"/>
  <path fill="#b2ecff" d="M52 82h96v38H52z"/>
  <path fill="#7f9bff" d="M74 58c0-10 8-18 18-18h16c10 0 18 8 18 18v14H74z"/>
  <path fill="#ffefff" d="M86 64a10 10 0 1 1 0 20 10 10 0 1 1 0-20zm28 0a10 10 0 1 1 0 20 10 10 0 1 1 0-20z"/>
  <path fill="#4451a6" d="M86 72a4 4 0 1 1 0 8 4 4 0 1 1 0-8zm28 0a4 4 0 1 1 0 8 4 4 0 1 1 0-8z"/>
  <path fill="#ff9db3" d="M44 118c0-6 4-10 10-10s10 4 10 10v12H44zm92 0c0-6 4-10 10-10s10 4 10 10v12h-20z"/>
  <path fill="#6fbdea" d="M98 26c8 0 14 6 14 14v8H84v-8c0-8 6-14 14-14z"/>
</svg>
