<svg xmlns="http://www.w3.org/2000/svg" viewBox="0 0 200 200">
  <path fill="#ffa6a6" d="M100 30c24 0 36 30 36 60 0 34-12 66-36 66s-36-32-36-66c0-30 12-60 36-60z"/>
  <path fill="#ffccd2" d="M84 48c10-10 22-10 32 0 6 6 10 18 10 28 0 8-4 18-10 18-6 0-10-8-16-8s-10 8-16 8c-6 0-10-10-10-18 0-10 4-22 10-28z"/>
  <path fill="#7f52ff" d="M76 132c-14 4-26 14-30 28 14-4 28-2 40 4-4-12-8-22-10-32zm48 0c-4 10-6 20-10 32 12-6 26-8 40-4-4-14-16-24-30-28z"/>
  <path fill="#ffd56f" d="M100 156c10 0 18 10 18 22s-8 22-18 22-18-10-18-22 8-22 18-22z"/>
  <path fill="#ffaf58" d="M100 164c6 0 10 6 10 14s-4 14-10 14-10-6-10-14 4-14 10-14z"/>
</svg>
